<svg xmlns="http://www.w3.org/2000/svg" width="72" height="72" fill="none" viewBox="0 0 72 72">
  <circle cx="54" cy="18" r="18" fill="url(#a)"/>
  <path fill="#E7F1FF" fill-rule="evenodd" d="M13.5 60h42C64.613 60 72 52.613 72 43.5S64.613 27 55.5 27c-.362 0-.72.012-1.077.035C50.657 19.879 43.148 15 34.5 15c-10.9 0-19.99 7.75-22.058 18.04C5.48 33.58 0 39.4 0 46.5 0 53.956 6.044 60 13.5 60Z" clip-rule="evenodd"/>
  <path fill="url(#b)" fill-rule="evenodd" d="M13.5 60h42C64.613 60 72 52.613 72 43.5S64.613 27 55.5 27c-.362 0-.72.012-1.077.035C50.657 19.879 43.148 15 34.5 15c-10.9 0-19.99 7.75-22.058 18.04C5.48 33.58 0 39.4 0 46.5 0 53.956 6.044 60 13.5 60Z" clip-rule="evenodd"/>
  <path fill="url(#c)" fill-rule="evenodd" d="M13.5 60h42C64.613 60 72 52.613 72 43.5S64.613 27 55.5 27c-.362 0-.72.012-1.077.035C50.657 19.879 43.148 15 34.5 15c-10.9 0-19.99 7.75-22.058 18.04C5.48 33.58 0 39.4 0 46.5 0 53.956 6.044 60 13.5 60Z" clip-rule="evenodd"/>
  <path fill="url(#d)" d="M0 46.5C0 39.044 6.044 33 13.5 33H18c9.941 0 18 8.059 18 18v9H13.5C6.044 60 0 53.956 0 46.5Z"/>
  <path fill="url(#e)" d="M12 37.5C12 25.074 22.074 15 34.5 15S57 25.074 57 37.5 46.926 60 34.5 60 12 49.926 12 37.5Z"/>
  <circle cx="55.5" cy="43.5" r="16.5" fill="url(#f)"/>
  <path fill="#C4C4C4" fill-rule="evenodd" d="M45 61.5V41.1c0-1.875 2.27-2.81 3.591-1.478l14.25 14.371A10.469 10.469 0 0 1 66 61.5C66 67.3 61.299 72 55.5 72S45 67.3 45 61.5Z" clip-rule="evenodd"/>
  <path fill="url(#g)" fill-rule="evenodd" d="M45 61.5V41.1c0-1.875 2.27-2.81 3.591-1.478l14.25 14.371A10.469 10.469 0 0 1 66 61.5C66 67.3 61.299 72 55.5 72S45 67.3 45 61.5Z" clip-rule="evenodd"/>
  <path fill="#C4C4C4" fill-rule="evenodd" d="M18 59.441v-16.11c0-1.875 2.27-2.81 3.591-1.479l11.007 11.1a9 9 0 1 1-14.58 6.481l-.018.008Z" clip-rule="evenodd"/>
  <path fill="url(#h)" fill-rule="evenodd" d="M18 59.441v-16.11c0-1.875 2.27-2.81 3.591-1.479l11.007 11.1a9 9 0 1 1-14.58 6.481l-.018.008Z" clip-rule="evenodd"/>
  <defs>
    <linearGradient id="a" x1="62.1" x2="32.748" y1="25.8" y2="-10.024" gradientUnits="userSpaceOnUse">
      <stop stop-color="#EF6D0F"/>
      <stop offset=".563" stop-color="#EEB82E"/>
      <stop offset="1" stop-color="#FEB649" stop-opacity=".78"/>
    </linearGradient>
    <linearGradient id="b" x1="22.5" x2="36" y1="25.5" y2="60" gradientUnits="userSpaceOnUse">
      <stop stop-color="#C6D8F5"/>
      <stop offset="1" stop-color="#89AFD1" stop-opacity="0"/>
    </linearGradient>
    <linearGradient id="c" x1="32.1" x2="31.154" y1="61.593" y2="15" gradientUnits="userSpaceOnUse">
      <stop stop-color="#547DDA"/>
      <stop offset=".257" stop-color="#93C2FF" stop-opacity="0"/>
    </linearGradient>
    <linearGradient id="g" x1="60.751" x2="41.783" y1="69.823" y2="48.919" gradientUnits="userSpaceOnUse">
      <stop stop-color="#06F"/>
      <stop offset="1" stop-color="#65ACFF"/>
    </linearGradient>
    <linearGradient id="h" x1="31.501" x2="15.569" y1="67.168" y2="49.285" gradientUnits="userSpaceOnUse">
      <stop stop-color="#06F"/>
      <stop offset="1" stop-color="#65ACFF"/>
    </linearGradient>
    <radialGradient id="d" cx="0" cy="0" r="1" gradientTransform="matrix(-17.50002 -22.5 26.03843 -20.25213 19.5 60)" gradientUnits="userSpaceOnUse">
      <stop offset=".684" stop-color="#8FABDD" stop-opacity="0"/>
      <stop offset="1" stop-color="#5582D3"/>
    </radialGradient>
    <radialGradient id="e" cx="0" cy="0" r="1" gradientTransform="rotate(-90 45 10.5) scale(40.5)" gradientUnits="userSpaceOnUse">
      <stop offset=".599" stop-color="#C7DFFF" stop-opacity="0"/>
      <stop offset="1" stop-color="#6B97E6"/>
    </radialGradient>
    <radialGradient id="f" cx="0" cy="0" r="1" gradientTransform="rotate(-56.31 75.295 -15.83) scale(31.7288)" gradientUnits="userSpaceOnUse">
      <stop offset=".478" stop-color="#8FABDD" stop-opacity="0"/>
      <stop offset="1" stop-color="#5582D3"/>
    </radialGradient>
  </defs>
</svg>
